<mxfile host="app.diagrams.net" agent="Mozilla/5.0 (Windows NT 10.0; Win64; x64) AppleWebKit/537.36 (KHTML, like Gecko) Chrome/137.0.0.0 Safari/537.36" version="27.1.4">
  <diagram name="Page-1" id="pM3GhadZr_qYIwcJ3vPM">
    <mxGraphModel dx="1665" dy="743" grid="1" gridSize="10" guides="1" tooltips="1" connect="1" arrows="1" fold="1" page="1" pageScale="1" pageWidth="827" pageHeight="1169" math="0" shadow="0">
      <root>
        <mxCell id="0" />
        <mxCell id="1" parent="0" />
        <mxCell id="ei7jbz-YRQT29svRiO82-1" value="" style="rounded=0;whiteSpace=wrap;html=1;" vertex="1" parent="1">
          <mxGeometry x="140" y="100" width="400" height="200" as="geometry" />
        </mxCell>
        <mxCell id="ei7jbz-YRQT29svRiO82-2" value="" style="rounded=0;whiteSpace=wrap;html=1;" vertex="1" parent="1">
          <mxGeometry x="150" y="110" width="380" height="60" as="geometry" />
        </mxCell>
        <mxCell id="ei7jbz-YRQT29svRiO82-3" value="1" style="rounded=0;whiteSpace=wrap;html=1;" vertex="1" parent="1">
          <mxGeometry x="160" y="117.5" width="90" height="45" as="geometry" />
        </mxCell>
        <mxCell id="ei7jbz-YRQT29svRiO82-4" value="4" style="rounded=0;whiteSpace=wrap;html=1;" vertex="1" parent="1">
          <mxGeometry x="450" y="117.5" width="70" height="45" as="geometry" />
        </mxCell>
        <mxCell id="ei7jbz-YRQT29svRiO82-5" value="2" style="rounded=0;whiteSpace=wrap;html=1;" vertex="1" parent="1">
          <mxGeometry x="260" y="117.5" width="70" height="45" as="geometry" />
        </mxCell>
        <mxCell id="ei7jbz-YRQT29svRiO82-6" value="3" style="rounded=0;whiteSpace=wrap;html=1;" vertex="1" parent="1">
          <mxGeometry x="350" y="117.5" width="70" height="45" as="geometry" />
        </mxCell>
        <mxCell id="ei7jbz-YRQT29svRiO82-7" value="" style="rounded=0;whiteSpace=wrap;html=1;" vertex="1" parent="1">
          <mxGeometry x="150" y="180" width="380" height="60" as="geometry" />
        </mxCell>
        <mxCell id="ei7jbz-YRQT29svRiO82-8" value="4" style="rounded=0;whiteSpace=wrap;html=1;" vertex="1" parent="1">
          <mxGeometry x="160" y="190" width="90" height="40" as="geometry" />
        </mxCell>
      </root>
    </mxGraphModel>
  </diagram>
</mxfile>
